<svg width="21" height="20" viewBox="0 0 21 20" fill="none" xmlns="http://www.w3.org/2000/svg">
<g clip-path="url(#clip0_14_289)">
<path d="M10.9573 9.45366C12.4361 9.45366 13.6249 8.25806 13.6249 6.78867C13.6266 5.31498 12.4361 4.1228 10.9573 4.1228C9.48877 4.1228 8.29663 5.31498 8.29663 6.78867C8.29663 8.25981 9.48881 9.45366 10.9573 9.45366Z" fill="white"/>
<path d="M13.097 9.88794H8.82439C8.06051 9.88794 7.43481 10.5883 7.43481 11.4475V15.7389C7.43481 15.7861 7.45885 15.8282 7.46143 15.8771H14.4574C14.4625 15.8282 14.4823 15.7862 14.4823 15.7389V11.4475C14.4848 10.5883 13.8591 9.88794 13.097 9.88794Z" fill="white"/>
<path d="M18.1327 10.7257C19.3198 10.7257 20.2716 9.77043 20.2716 8.59027C20.2716 7.41011 19.3198 6.45312 18.1327 6.45312C16.9543 6.45312 16.0007 7.41011 16.0007 8.59027C15.9982 9.76959 16.9543 10.7257 18.1327 10.7257Z" fill="white"/>
<path d="M19.8485 11.0742H16.4248C15.8102 11.0742 15.3081 11.6355 15.3081 12.3265V15.7648C15.3081 15.8017 15.3261 15.8369 15.3287 15.8773H20.9403C20.9428 15.8369 20.96 15.8017 20.96 15.7648V12.3265C20.9626 11.6355 20.4613 11.0742 19.8485 11.0742Z" fill="white"/>
<path d="M3.78543 10.7257C4.97073 10.7257 5.92345 9.77043 5.92345 8.59027C5.92345 7.41011 4.97073 6.45312 3.78543 6.45312C2.60615 6.45312 1.65259 7.41011 1.65259 8.59027C1.65259 9.77043 2.60615 10.7257 3.78543 10.7257Z" fill="white"/>
<path d="M5.50032 11.0742H2.07316C1.46036 11.0742 0.959961 11.6355 0.959961 12.3265V15.7648C0.959961 15.8017 0.977986 15.8369 0.981408 15.8773H6.59294C6.59553 15.8369 6.61185 15.8017 6.61185 15.7648V12.3265C6.61356 11.6355 6.11229 11.0742 5.50032 11.0742Z" fill="white"/>
</g>
<defs>
<clipPath id="clip0_14_289">
<rect width="20" height="20" fill="white" transform="translate(0.959961)"/>
</clipPath>
</defs>
</svg>
