<svg width="21" height="20" viewBox="0 0 21 20" fill="none" xmlns="http://www.w3.org/2000/svg">
<path d="M15.6953 7.44322V2.57373H7.31616V7.44326H15.6953V7.44322ZM7.97409 3.23166H15.0374V6.78534H7.97409V3.23166Z" fill="white"/>
<path d="M14.3349 3.92651H8.677V4.58444H14.3349V3.92651Z" fill="white"/>
<path d="M14.3349 5.24219H8.677V5.90011H14.3349V5.24219Z" fill="white"/>
<path d="M18.1132 0H5.53137C4.58036 0 3.80664 0.773722 3.80664 1.72478C3.80664 1.72478 3.80677 16.3093 3.80677 16.3094C3.80677 17.2604 4.58041 18.034 5.53133 18.034H6.53633V20H8.98808V18.034H18.1129L18.1132 0ZM17.4553 14.5843H5.86034V0.657926H17.4553V14.5843ZM5.20241 0.710078V14.6157C4.93301 14.6674 4.6812 14.7828 4.46457 14.9541V1.72478C4.46457 1.25129 4.77471 0.849076 5.20241 0.710078ZM5.53133 17.3761C4.94319 17.3761 4.4647 16.8976 4.4647 16.3094C4.4647 16.0241 4.57563 15.756 4.77708 15.5546C4.9785 15.3532 5.24636 15.2423 5.53133 15.2423H6.53633V17.3761H5.53133ZM7.19426 19.3421V15.2422H8.33015V19.3421H7.19426ZM17.4551 17.3761H8.98812V15.2423H17.4551V17.3761Z" fill="white"/>
</svg>
