<svg width="21" height="20" viewBox="0 0 21 20" fill="none" xmlns="http://www.w3.org/2000/svg">
<path fill-rule="evenodd" clip-rule="evenodd" d="M4.44965 9.48225C4.31839 9.79908 4.29338 9.961 4.29338 9.99992V16.6681C4.29338 17.1273 4.66548 17.4999 5.12671 17.4999H7.62671V12.4999C7.62671 11.5794 8.3729 10.8333 9.29338 10.8333H12.6267C13.5472 10.8333 14.2934 11.5794 14.2934 12.4999V17.4999H16.7934C17.2546 17.4999 17.6267 17.1273 17.6267 16.6681V9.99992C17.6267 9.961 17.6017 9.79908 17.4705 9.48225C17.3485 9.18792 17.1636 8.82708 16.9223 8.41867C16.4404 7.60308 15.7642 6.64991 15.0074 5.74173C14.2488 4.83149 13.43 3.99133 12.6685 3.38703C12.288 3.08495 11.938 2.85498 11.6313 2.70359C11.3175 2.54877 11.0968 2.49992 10.96 2.49992C10.8233 2.49992 10.6025 2.54877 10.2888 2.70359C9.98204 2.85498 9.63213 3.08495 9.25153 3.38703C8.49012 3.99133 7.67128 4.83149 6.91273 5.74173C6.15592 6.64991 5.47972 7.60308 4.99779 8.41867C4.75644 8.82708 4.57158 9.18792 4.44965 9.48225ZM9.55121 1.20901C9.98946 0.992735 10.4718 0.833252 10.96 0.833252C11.4483 0.833252 11.9306 0.992735 12.3689 1.20901C12.814 1.4287 13.265 1.73259 13.7046 2.08155C14.5839 2.77934 15.4838 3.71002 16.2877 4.67477C17.0935 5.64159 17.8235 6.66758 18.3572 7.57077C18.6236 8.0217 18.849 8.45508 19.0102 8.84442C19.1621 9.21117 19.2934 9.62217 19.2934 9.99992V16.6681C19.2934 18.0498 18.1731 19.1666 16.7934 19.1666H14.2934C13.3729 19.1666 12.6267 18.4204 12.6267 17.4999V12.4999H9.29338V17.4999C9.29338 18.4204 8.54718 19.1666 7.62671 19.1666H5.12671C3.74699 19.1666 2.62671 18.0498 2.62671 16.6681V9.99992C2.62671 9.62217 2.75794 9.21117 2.90989 8.84442C3.07116 8.45508 3.29645 8.0217 3.56292 7.57077C4.09662 6.66758 4.82667 5.64159 5.63236 4.67477C6.43631 3.71002 7.33622 2.77934 8.21543 2.08155C8.65513 1.73259 9.10605 1.4287 9.55121 1.20901Z" fill="white"/>
</svg>
