<svg width="31" height="30" viewBox="0 0 31 30" fill="none" xmlns="http://www.w3.org/2000/svg">
<path d="M10.1794 25.0163C9.73121 24.757 9.15771 24.9101 8.89846 25.3582C8.6392 25.8065 8.79235 26.38 9.24054 26.6392L10.1794 25.0163ZM4.32074 21.7194C4.57999 22.1676 5.15349 22.3208 5.60167 22.0615C6.04985 21.8022 6.203 21.2288 5.94375 20.7806L4.32074 21.7194ZM27.5225 15C27.5225 21.3857 22.3457 26.5625 15.96 26.5625V28.4375C23.3813 28.4375 29.3975 22.4214 29.3975 15H27.5225ZM4.39746 15C4.39746 8.61421 9.57417 3.4375 15.96 3.4375V1.5625C8.53864 1.5625 2.52246 7.57868 2.52246 15H4.39746ZM20.335 17.8125C16.3655 17.8125 13.1475 14.5945 13.1475 10.625H11.2725C11.2725 15.6301 15.3298 19.6875 20.335 19.6875V17.8125ZM26.4916 14.3363C25.2315 16.4216 22.9452 17.8125 20.335 17.8125V19.6875C23.6286 19.6875 26.5108 17.9299 28.0965 15.3059L26.4916 14.3363ZM13.1475 10.625C13.1475 8.01477 14.5383 5.7285 16.6237 4.46834L15.6541 2.86356C13.0301 4.44912 11.2725 7.33136 11.2725 10.625H13.1475ZM15.96 3.4375C15.8493 3.4375 15.7196 3.3876 15.6255 3.2896C15.5457 3.20659 15.5272 3.12805 15.5228 3.09629C15.5176 3.05734 15.5202 2.94446 15.6541 2.86356L16.6237 4.46834C17.2527 4.08831 17.455 3.39247 17.381 2.84534C17.3042 2.27657 16.8557 1.5625 15.96 1.5625V3.4375ZM28.0965 15.3059C28.0155 15.4398 27.9026 15.4424 27.8637 15.4371C27.832 15.4327 27.7533 15.4143 27.6703 15.3345C27.5723 15.2404 27.5225 15.1106 27.5225 15H29.3975C29.3975 14.1042 28.6833 13.6558 28.1146 13.579C27.5675 13.505 26.8716 13.7072 26.4916 14.3363L28.0965 15.3059ZM15.96 26.5625C13.8523 26.5625 11.8791 25.9995 10.1794 25.0163L9.24054 26.6392C11.218 27.7831 13.514 28.4375 15.96 28.4375V26.5625ZM5.94375 20.7806C4.9605 19.0809 4.39746 17.1076 4.39746 15H2.52246C2.52246 17.446 3.17685 19.742 4.32074 21.7194L5.94375 20.7806Z" fill="white"/>
</svg>
