<svg width="21" height="20" viewBox="0 0 21 20" fill="none" xmlns="http://www.w3.org/2000/svg">
<g clip-path="url(#clip0_14_300)">
<path d="M10.1265 4.16675C9.6663 4.16675 9.29321 4.53984 9.29321 5.00008C9.29321 5.46031 9.6663 5.83341 10.1265 5.83341H15.9599C16.4201 5.83341 16.7932 5.46031 16.7932 5.00008C16.7932 4.53984 16.4201 4.16675 15.9599 4.16675H10.1265Z" fill="white"/>
<path d="M9.29321 8.33337C9.29321 7.87309 9.6663 7.5 10.1265 7.5H11.7932C12.2535 7.5 12.6265 7.87309 12.6265 8.33337C12.6265 8.79353 12.2535 9.1667 11.7932 9.1667H10.1265C9.6663 9.1667 9.29321 8.79353 9.29321 8.33337Z" fill="white"/>
<path d="M10.1265 10.8335C9.6663 10.8335 9.29321 11.2066 9.29321 11.6668C9.29321 12.127 9.6663 12.5002 10.1265 12.5002H11.7932C12.2535 12.5002 12.6265 12.127 12.6265 11.6668C12.6265 11.2066 12.2535 10.8335 11.7932 10.8335H10.1265Z" fill="white"/>
<path d="M9.29321 15.0001C9.29321 14.5398 9.6663 14.1667 10.1265 14.1667H11.7932C12.2535 14.1667 12.6265 14.5398 12.6265 15.0001C12.6265 15.4602 12.2535 15.8334 11.7932 15.8334H10.1265C9.6663 15.8334 9.29321 15.4602 9.29321 15.0001Z" fill="white"/>
<path d="M14.2933 7.5C13.833 7.5 13.46 7.87309 13.46 8.33337C13.46 8.79353 13.833 9.1667 14.2933 9.1667H15.96C16.4202 9.1667 16.7933 8.79353 16.7933 8.33337C16.7933 7.87309 16.4202 7.5 15.96 7.5H14.2933Z" fill="white"/>
<path d="M13.46 11.6668C13.46 11.2066 13.833 10.8335 14.2933 10.8335H15.96C16.4202 10.8335 16.7933 11.2066 16.7933 11.6668C16.7933 12.127 16.4202 12.5002 15.96 12.5002H14.2933C13.833 12.5002 13.46 12.127 13.46 11.6668Z" fill="white"/>
<path d="M14.2933 14.1667C13.833 14.1667 13.46 14.5398 13.46 15.0001C13.46 15.4602 13.833 15.8334 14.2933 15.8334H15.96C16.4202 15.8334 16.7933 15.4602 16.7933 15.0001C16.7933 14.5398 16.4202 14.1667 15.96 14.1667H14.2933Z" fill="white"/>
<path fill-rule="evenodd" clip-rule="evenodd" d="M4.70999 19.1668H16.7932C17.564 19.1668 18.1975 18.9716 18.7008 18.6362C19.1988 18.3042 19.5204 17.8675 19.726 17.4561C19.9301 17.0481 20.028 16.65 20.0761 16.3611C20.1051 16.1873 20.1261 16.0099 20.1265 15.8335V3.3335C20.1265 1.95279 19.0073 0.833496 17.6265 0.833496H8.45988C7.07917 0.833496 5.95988 1.95279 5.95988 3.3335V10.8335H4.29321C2.91305 10.8335 1.79321 11.9513 1.79321 13.3326V15.8335C1.79321 17.3657 2.45884 18.2671 3.23946 18.7356C3.60285 18.9536 3.95951 19.0592 4.22093 19.1116C4.38113 19.1436 4.5462 19.1668 4.70999 19.1668ZM18.4599 3.3335C18.4599 2.87326 18.0868 2.50016 17.6265 2.50016H8.45988C7.99964 2.50016 7.62655 2.87326 7.62655 3.3335V15.8335C7.62655 16.5045 7.49891 17.0545 7.28987 17.5001H16.7932C17.2724 17.5001 17.5764 17.3827 17.7763 17.2495C17.9814 17.1127 18.1285 16.9244 18.2354 16.7107C18.3696 16.4422 18.4516 16.13 18.4599 15.8283V3.3335ZM4.29321 12.5001H5.95988V15.8335C5.95988 16.8011 5.58384 17.1497 5.3228 17.3064C4.9303 17.5419 4.48662 17.5401 4.09696 17.3064C3.83592 17.1497 3.45988 16.8011 3.45988 15.8335V13.3326C3.45988 12.8729 3.83242 12.5001 4.29321 12.5001Z" fill="white"/>
</g>
<defs>
<clipPath id="clip0_14_300">
<rect width="20" height="20" fill="white" transform="translate(0.959961)"/>
</clipPath>
</defs>
</svg>
