<svg width="20" height="20" viewBox="0 0 20 20" fill="none" xmlns="http://www.w3.org/2000/svg">
<path d="M18.4783 14.3523H3.24794C2.83088 14.3523 2.41504 14.2579 2.41504 14.0585V13.7045L2.72812 13.5418C3.18184 13.3059 4.11124 12.8327 4.44174 12.6951L4.62602 12.6184V3.65024C4.62602 3.60286 4.64484 3.55742 4.67834 3.52392C4.71185 3.49041 4.75729 3.47159 4.80467 3.47159H17.4331C17.4566 3.47156 17.4798 3.47615 17.5015 3.48509C17.5231 3.49404 17.5428 3.50718 17.5594 3.52374C17.576 3.54031 17.5892 3.55998 17.5982 3.58164C17.6071 3.60329 17.6118 3.62651 17.6118 3.64995V12.5718L17.8263 12.6949C18.1568 12.8325 19.0862 13.306 19.5399 13.5416L19.853 13.7043V14.0584C19.853 14.2577 19.4374 14.3521 18.9101 14.3521H3.67974" fill="white"/>
<path d="M5.33398 4.28272V6.04667C5.33398 6.06114 5.33721 6.07543 5.34345 6.08848C5.34968 6.10154 5.35875 6.11304 5.37001 6.12213C5.38126 6.13123 5.3944 6.13769 5.40848 6.14104C5.42255 6.1444 5.4372 6.14457 5.45134 6.14153C7.04294 5.7959 9.8733 5.18463 9.92058 5.17527C10.1824 5.12362 10.4067 5.30533 10.4479 5.46662C10.6255 6.16243 11.4614 9.91554 11.6163 10.7735C11.646 10.9379 11.5653 11.2448 11.3174 11.3049C11.1593 11.3432 10.4216 11.5022 9.53349 11.6912C9.51007 11.6962 9.48933 11.7097 9.47526 11.7291C9.46118 11.7484 9.45477 11.7723 9.45726 11.7962C9.45974 11.82 9.47095 11.842 9.48872 11.8581C9.5065 11.8741 9.52958 11.883 9.55352 11.8831C12.3427 11.8831 15.6008 11.8831 16.7675 11.8825C16.7932 11.8825 16.8179 11.8723 16.8361 11.8541C16.8543 11.8359 16.8645 11.8112 16.8645 11.7855V4.28272C16.8645 4.257 16.8543 4.23233 16.8361 4.21414C16.8179 4.19595 16.7932 4.18573 16.7675 4.18573H5.43097C5.40525 4.18573 5.38058 4.19595 5.36239 4.21414C5.3442 4.23233 5.33398 4.257 5.33398 4.28272Z" fill="#ECECEC"/>
<path d="M17.7286 12.4316V3.763C17.7286 3.66019 17.734 3.55845 17.6672 3.47145C17.6387 3.43507 17.6023 3.40568 17.5607 3.38551C17.5191 3.36534 17.4735 3.35493 17.4272 3.35506C17.3069 3.35142 17.1858 3.35506 17.0654 3.35506H5.12488C5.01897 3.35506 4.91213 3.35104 4.80622 3.35506C4.72826 3.35638 4.65385 3.38789 4.59865 3.44297C4.54346 3.49804 4.51179 3.57239 4.5103 3.65035C4.50909 3.68182 4.5103 3.71339 4.5103 3.74506V6.17795C4.5103 6.32775 4.74308 6.32799 4.74308 6.17795V3.74506C4.74308 3.68289 4.72625 3.59283 4.81204 3.58798C4.84982 3.58585 4.88832 3.58798 4.9261 3.58798H17.31C17.3484 3.58798 17.3876 3.58599 17.4258 3.58798C17.5266 3.59322 17.4959 3.7468 17.4959 3.81998V12.4316C17.4959 12.5814 17.7286 12.5816 17.7286 12.4316Z" fill="#211715"/>
<path d="M11.8736 13.5971H10.3654C10.2156 13.5971 10.2153 13.8299 10.3654 13.8299H11.8736C12.0234 13.8299 12.0236 13.5971 11.8736 13.5971Z" fill="#211715"/>
<path d="M4.84961 13.728C6.11751 13.728 8.32087 13.728 9.65685 13.7266L4.84961 13.728Z" fill="white"/>
<path d="M4.84973 13.8434H6.65374H8.66967C8.99882 13.8434 9.32795 13.8434 9.65707 13.8432C9.80687 13.8432 9.80711 13.6104 9.65707 13.6104C9.03957 13.6106 8.42207 13.6107 7.80457 13.6108C7.13708 13.6108 6.46963 13.6108 5.80221 13.6108H4.84973C4.69998 13.6108 4.69968 13.8435 4.84973 13.8435V13.8434Z" fill="#211715"/>
<path d="M12.5596 13.728C13.8275 13.728 17.6083 13.728 18.9443 13.7266L12.5596 13.728Z" fill="white"/>
<path d="M12.5595 13.8434H14.9032H17.7598L18.9443 13.8432C19.0941 13.8432 19.0943 13.6104 18.9443 13.6104C18.1469 13.6107 17.3495 13.6108 16.552 13.6108C15.6043 13.6108 14.6567 13.6108 13.709 13.6108H12.5597C12.4099 13.6108 12.4096 13.8435 12.5597 13.8435L12.5595 13.8434Z" fill="#211715"/>
<path d="M4.83203 12.7269C6.29614 12.7269 15.6907 12.7269 17.0266 12.7254L4.83203 12.7269Z" fill="white"/>
<path d="M4.83217 12.8423H12.3527H13.8419H15.1592H16.2112C16.4468 12.8423 16.6824 12.8423 16.918 12.8423H17.0268C17.1766 12.8423 17.1768 12.6095 17.0268 12.6095H16.4189H15.4387H14.1817H4.83217C4.68237 12.6095 4.68212 12.8423 4.83217 12.8423Z" fill="#211715"/>
<path d="M19.7647 13.8395C19.7647 13.9061 19.7642 13.9728 19.7647 14.0395C19.7647 14.0476 19.7647 14.0557 19.7647 14.0637C19.7647 14.0673 19.7684 14.0579 19.7619 14.0695C19.7468 14.0902 19.7268 14.1069 19.7037 14.118C19.6029 14.1674 19.494 14.1981 19.3823 14.2087C19.2351 14.2284 19.0867 14.2375 18.9383 14.2358C18.8732 14.2358 18.808 14.2358 18.743 14.2358H4.74721C4.59741 14.2358 4.59716 14.4686 4.74721 14.4686H18.9161C19.0305 14.4686 19.1448 14.4656 19.2588 14.4555C19.4733 14.4365 19.7638 14.4103 19.9214 14.2419C20.0233 14.1329 19.9974 13.9764 19.9974 13.8394C19.9974 13.6896 19.7647 13.6894 19.7647 13.8394V13.8395Z" fill="#211715"/>
<path d="M17.7955 12.8072C17.7682 12.7957 17.8165 12.8162 17.8261 12.8205C17.8471 12.8297 17.868 12.8391 17.8889 12.8485C17.9359 12.8698 17.9828 12.8915 18.0295 12.9137C18.1431 12.9673 18.2561 13.022 18.3686 13.0777C18.6221 13.2026 18.8745 13.3296 19.1259 13.4588C19.2446 13.5196 19.3632 13.5807 19.4816 13.6421C19.6143 13.7111 19.7322 13.5103 19.5991 13.4411C19.1268 13.1957 18.6526 12.9525 18.1716 12.7243C18.0679 12.6751 17.9636 12.627 17.8577 12.5827C17.8279 12.5747 17.7962 12.5787 17.7694 12.5939C17.7426 12.6091 17.7228 12.6343 17.7145 12.664C17.7071 12.6937 17.7114 12.7252 17.7265 12.7518C17.7416 12.7785 17.7664 12.7983 17.7958 12.8072H17.7955Z" fill="#211715"/>
<path d="M12.1351 8.49998C12.2796 8.85801 12.4178 9.21906 12.5707 9.5737C12.5807 9.59141 12.5954 9.6061 12.613 9.61624C12.6307 9.62638 12.6508 9.6316 12.6711 9.63136C13.2069 9.63136 13.7429 9.63364 14.2784 9.6348C14.3786 9.635 14.4786 9.63516 14.5785 9.63529C14.7283 9.63529 14.7285 9.40251 14.5785 9.40251C14.0516 9.40251 13.5248 9.40014 12.9979 9.39907C12.889 9.39884 12.7801 9.39868 12.6711 9.39859L12.7717 9.4562C12.7681 9.44974 12.7651 9.44294 12.7629 9.43588C12.7594 9.41163 12.7718 9.45707 12.7613 9.4321C12.7542 9.41503 12.7471 9.39797 12.74 9.38093C12.7221 9.33768 12.7043 9.29434 12.6867 9.25092C12.6452 9.14908 12.6039 9.04713 12.563 8.94506C12.4951 8.77611 12.4277 8.60691 12.3593 8.4381C12.3503 8.40885 12.3305 8.38415 12.3039 8.36903C12.2773 8.35392 12.2459 8.34953 12.2162 8.35677C12.1865 8.36515 12.1613 8.38488 12.1461 8.41169C12.1309 8.43849 12.1269 8.47021 12.1349 8.49998H12.1351Z" fill="#211715"/>
<path d="M13.0157 8.67583C13.5515 8.67583 14.0872 8.67811 14.623 8.67927C14.723 8.67947 14.8231 8.67963 14.9231 8.67976C15.0729 8.67976 15.0732 8.44698 14.9231 8.44698C14.3962 8.44698 13.8694 8.44461 13.3425 8.44354C13.2336 8.44334 13.1246 8.44318 13.0157 8.44305C12.866 8.44305 12.8657 8.67583 13.0157 8.67583Z" fill="#211715"/>
<path d="M12.8064 10.2812C13.4271 10.2812 14.0479 10.2744 14.6683 10.2715C14.6993 10.2715 14.7309 10.273 14.7619 10.2712C14.7913 10.268 14.8192 10.2568 14.8426 10.2387C14.8659 10.2206 14.8838 10.1963 14.8942 10.1686C14.9469 10.0654 14.9941 9.95949 15.0354 9.85124C15.178 9.5062 15.3096 9.1566 15.4432 8.80802C15.516 8.6185 15.5884 8.42893 15.6627 8.24005C15.6908 8.16866 15.7191 8.09733 15.7484 8.02643C15.7508 8.02051 15.7532 8.01464 15.7557 8.00877C15.7684 7.97803 15.7501 8.02167 15.7578 8.00359C15.7629 7.9918 15.7679 7.97997 15.7731 7.96823C15.7819 7.94825 15.7908 7.92837 15.8004 7.90873L15.6998 7.96639C15.8637 7.96639 16.0276 7.96639 16.1914 7.96639C16.3412 7.96639 16.3415 7.73361 16.1914 7.73361C16.0276 7.73361 15.8637 7.73361 15.6998 7.73361C15.6795 7.73348 15.6595 7.73874 15.6418 7.74887C15.6242 7.759 15.6095 7.77363 15.5994 7.79128C15.4585 8.08006 15.355 8.39082 15.2401 8.69047C15.0946 9.06965 14.9525 9.45048 14.796 9.82525C14.7925 9.83388 14.7889 9.84249 14.7852 9.85109C14.797 9.82306 14.7817 9.85919 14.7796 9.86433C14.7731 9.87956 14.7665 9.89475 14.7598 9.90992C14.7467 9.93989 14.7333 9.96981 14.7192 9.99934C14.709 10.0205 14.6988 10.0419 14.687 10.0624C14.6824 10.0689 14.6782 10.0757 14.6745 10.0828C14.6676 10.1009 14.6988 10.0571 14.6816 10.0727L14.764 10.0387C14.216 10.0387 13.668 10.0449 13.12 10.0476C13.0156 10.0481 12.9112 10.0489 12.8067 10.0489C12.657 10.0489 12.6567 10.2817 12.8067 10.2817L12.8064 10.2812Z" fill="#211715"/>
<path d="M13.0231 10.4183C12.9871 10.4176 12.9514 10.4241 12.9181 10.4375C12.8847 10.4509 12.8544 10.4708 12.8289 10.4962C12.8034 10.5215 12.7833 10.5517 12.7698 10.585C12.7562 10.6183 12.7495 10.6539 12.75 10.6899C12.75 10.8593 12.8556 10.9663 13.0231 10.9663C13.1944 10.9663 13.2961 10.8593 13.2961 10.6899C13.2967 10.6539 13.29 10.6182 13.2764 10.585C13.2629 10.5517 13.2428 10.5214 13.2173 10.4961C13.1918 10.4707 13.1615 10.4508 13.1281 10.4374C13.0947 10.4241 13.059 10.4176 13.0231 10.4183Z" fill="#211715"/>
<path d="M14.5611 10.4183C14.5252 10.4176 14.4895 10.4241 14.4562 10.4375C14.4228 10.4509 14.3925 10.4708 14.367 10.4962C14.3415 10.5215 14.3214 10.5517 14.3079 10.585C14.2943 10.6183 14.2876 10.6539 14.2881 10.6899C14.2881 10.8593 14.3937 10.9663 14.5611 10.9663C14.7325 10.9663 14.8342 10.8593 14.8342 10.6899C14.8348 10.6539 14.8281 10.6182 14.8145 10.5849C14.801 10.5516 14.7809 10.5214 14.7554 10.4961C14.7299 10.4707 14.6995 10.4508 14.6662 10.4374C14.6328 10.424 14.5971 10.4175 14.5611 10.4183Z" fill="#211715"/>
<path d="M13.8905 5.08513C13.7303 5.08195 13.571 5.11104 13.4222 5.17068C13.2734 5.23032 13.1382 5.31929 13.0245 5.43228C12.9108 5.54528 12.821 5.68 12.7604 5.82841C12.6999 5.97683 12.6698 6.13591 12.672 6.29619C12.672 7.05218 13.1434 7.53 13.8906 7.53C14.6552 7.53 15.1092 7.05218 15.1092 6.29619C15.1115 6.13586 15.0816 5.9767 15.0211 5.8282C14.9605 5.67971 14.8707 5.54493 14.757 5.4319C14.6433 5.31887 14.5079 5.22991 14.359 5.17033C14.2102 5.11076 14.0508 5.08178 13.8905 5.08513Z" fill="#6DBF6B"/>
<path d="M13.2711 6.44007C13.3883 6.55112 13.5066 6.66164 13.6286 6.76746C13.6509 6.78826 13.6803 6.79983 13.7108 6.79983C13.7414 6.79983 13.7708 6.78826 13.7931 6.76746C14.0584 6.55845 14.3113 6.33324 14.5703 6.11671C14.5919 6.09476 14.604 6.0652 14.604 6.03441C14.604 6.00362 14.5919 5.97406 14.5703 5.95212C14.5482 5.93089 14.5187 5.91904 14.488 5.91904C14.4574 5.91904 14.4279 5.93089 14.4057 5.95212C14.1467 6.16865 13.8938 6.39386 13.6286 6.60282H13.7931C13.6712 6.497 13.5529 6.38653 13.4357 6.27548C13.327 6.17248 13.1621 6.33678 13.2711 6.44007Z" fill="white"/>
<path d="M0.117188 15.8948C0.255931 14.3249 -0.0460462 13.494 0.306802 11.9581C0.34713 11.785 0.445863 11.6311 0.586375 11.5223C1.03005 11.1765 1.4427 11.0223 1.88463 10.6725C1.92204 10.6429 1.95922 10.6129 1.99617 10.5825C2.11464 10.4849 2.40731 10.4661 2.62136 10.4431C2.77451 11.1622 2.96272 12.045 3.06752 12.5385C3.37788 12.2718 3.65367 11.9469 3.95386 11.6664C4.09604 11.5336 4.28993 11.4009 4.47033 11.4737C4.59156 11.5226 4.663 11.6561 4.67182 11.7867C4.67331 11.9181 4.64417 12.048 4.58671 12.1662C4.323 12.7908 3.98451 13.0844 3.67913 13.6897C3.54917 13.9473 3.45212 14.2201 3.39025 14.5019C3.31828 14.8303 3.3 15.0858 3.20112 15.3195C3.09414 15.6748 2.60187 16.0576 2.19243 16.5266" fill="white"/>
<path d="M3.93028 12.7253C3.98077 12.8154 4.09919 13.0822 4.12077 13.1435C4.20321 13.3781 4.34123 13.7705 4.34273 13.9092C4.34458 14.0806 4.30719 14.2656 4.17092 14.3695C4.03465 14.4734 3.81462 14.4665 3.70881 14.3316L3.701 14.3219L3.70944 14.3759C3.735 14.5402 3.64489 14.8214 3.59058 14.897C3.5647 14.9359 3.52889 14.9672 3.48686 14.9876C3.44483 15.008 3.39811 15.0167 3.35155 15.013C3.25761 14.9994 3.18666 14.9234 3.12624 14.8502C3.04942 14.7484 2.98811 14.6359 2.94434 14.5161" fill="white"/>
<path d="M2.83177 14.5469C2.86891 14.6552 2.92037 14.7582 2.98477 14.8529C3.05572 14.9596 3.14752 15.0643 3.26977 15.1112C3.33745 15.1333 3.41021 15.1348 3.47872 15.1153C3.54723 15.0959 3.60836 15.0564 3.65429 15.002C3.71666 14.9222 3.76075 14.8298 3.78343 14.7311C3.8231 14.6064 3.836 14.4748 3.8213 14.3448C3.81293 14.3151 3.79321 14.2899 3.76641 14.2747C3.73962 14.2595 3.7079 14.2555 3.67815 14.2635C3.64882 14.2724 3.62403 14.2922 3.60889 14.3188C3.59376 14.3455 3.58944 14.3769 3.59682 14.4066C3.59386 14.3856 3.59566 14.3989 3.59638 14.4113C3.59693 14.4207 3.59719 14.4302 3.59716 14.4397C3.59716 14.4634 3.59527 14.487 3.59309 14.5106C3.591 14.5333 3.59541 14.499 3.59173 14.5218C3.59003 14.5325 3.58829 14.5432 3.5863 14.5539C3.58203 14.577 3.57699 14.6 3.57131 14.6229C3.56114 14.6644 3.54881 14.7054 3.53436 14.7457C3.53077 14.7557 3.52694 14.7657 3.52306 14.7756C3.52151 14.7796 3.51981 14.7836 3.51821 14.7877C3.51821 14.7873 3.52791 14.7677 3.52185 14.7786C3.51448 14.792 3.50905 14.8063 3.50143 14.8196C3.48647 14.8439 3.4659 14.8644 3.44144 14.8792C3.4363 14.8822 3.40653 14.8949 3.42205 14.8897C3.41117 14.8934 3.40008 14.8964 3.38883 14.8987C3.40696 14.8951 3.38073 14.8983 3.37428 14.8984C3.3734 14.8984 3.35512 14.8962 3.36666 14.8984C3.37733 14.9001 3.35561 14.8951 3.35357 14.8945C3.34804 14.8929 3.34242 14.8913 3.33708 14.8891C3.33965 14.8901 3.35003 14.8953 3.33849 14.8891C3.32821 14.8835 3.31831 14.8776 3.30847 14.8712C3.2977 14.8642 3.30609 14.8702 3.30847 14.8719C3.30362 14.8682 3.29926 14.8642 3.29479 14.8603C3.28422 14.851 3.27404 14.8413 3.26424 14.8312C3.24596 14.8125 3.22904 14.7924 3.21216 14.7726C3.2093 14.7692 3.20663 14.7657 3.20372 14.7623C3.20411 14.7627 3.21681 14.781 3.20969 14.7698C3.20396 14.7609 3.19727 14.7526 3.19136 14.7439C3.16297 14.7017 3.13689 14.658 3.11323 14.6129C3.09999 14.588 3.08738 14.5626 3.07579 14.5368C3.07356 14.532 3.07133 14.5271 3.0692 14.5223C3.07366 14.5326 3.07249 14.5308 3.0692 14.5214C3.06493 14.5095 3.06047 14.4978 3.05649 14.4858C3.04771 14.4564 3.02792 14.4315 3.00125 14.4164C2.97457 14.4012 2.94308 14.397 2.91333 14.4045C2.88374 14.4129 2.85865 14.4327 2.84345 14.4595C2.82825 14.4862 2.82416 14.5179 2.83206 14.5477L2.83177 14.5469Z" fill="#211715"/>
<path d="M1.35369 13.042C1.68181 13.0132 1.99639 13.222 2.32432 13.107C2.35367 13.0982 2.37849 13.0784 2.39363 13.0517C2.40878 13.0251 2.41308 12.9936 2.40564 12.9639C2.3972 12.9343 2.37745 12.9092 2.35067 12.8939C2.32388 12.8787 2.2922 12.8747 2.26244 12.8826C2.12306 12.9314 1.98117 12.9044 1.83825 12.8721C1.67972 12.8364 1.51751 12.7948 1.35369 12.8091C1.32307 12.8099 1.29392 12.8224 1.27226 12.844C1.2506 12.8657 1.23809 12.8949 1.2373 12.9255C1.23752 12.9563 1.24985 12.9858 1.27163 13.0075C1.29341 13.0293 1.32289 13.0416 1.35369 13.0419V13.042Z" fill="#211715"/>
<path d="M1.56628 12.3851C1.73954 12.5735 1.90807 12.7662 2.07189 12.963C2.09377 12.9847 2.12335 12.9969 2.15419 12.9969C2.18502 12.9969 2.2146 12.9847 2.23648 12.963C2.25756 12.9408 2.26932 12.9113 2.26932 12.8807C2.26932 12.8501 2.25756 12.8206 2.23648 12.7984C2.07276 12.6016 1.90423 12.409 1.73087 12.2205C1.70894 12.1989 1.67937 12.1867 1.64858 12.1867C1.61778 12.1867 1.58822 12.1989 1.56628 12.2205C1.54505 12.2426 1.5332 12.2721 1.5332 12.3028C1.5332 12.3334 1.54505 12.3629 1.56628 12.3851Z" fill="#211715"/>
<path d="M2.05243 12.7022C2.21272 12.5481 2.35641 12.3776 2.48113 12.1936C2.51122 12.1491 2.54032 12.104 2.56842 12.0582C2.59616 12.0132 2.61953 11.9624 2.65163 11.9204C2.70372 11.8522 2.83194 11.8313 2.91486 11.8155C2.94447 11.807 2.96958 11.7873 2.98478 11.7605C2.99998 11.7338 3.00406 11.7021 2.99614 11.6723C2.98738 11.6429 2.96759 11.618 2.94091 11.6029C2.91423 11.5878 2.88272 11.5835 2.85298 11.5911C2.73412 11.6137 2.6045 11.6496 2.51139 11.731C2.46801 11.7746 2.43184 11.8249 2.40421 11.8798C2.37512 11.929 2.34497 11.9775 2.31377 12.0253C2.19181 12.2117 2.04892 12.3835 1.88789 12.5374C1.7797 12.6414 1.94443 12.8059 2.05248 12.702L2.05243 12.7022Z" fill="#211715"/>
<path d="M3.22627 13.6513C3.28433 13.8841 3.38753 14.1032 3.52999 14.2963C3.58187 14.3792 3.65142 14.4496 3.73367 14.5025C3.78983 14.5322 3.85142 14.5503 3.91475 14.5557C3.97807 14.5611 4.04184 14.5537 4.10223 14.5339C4.36619 14.4457 4.47079 14.1602 4.45867 13.9011C4.44956 13.8004 4.42867 13.7011 4.39645 13.6053C4.36187 13.4873 4.32254 13.3707 4.28239 13.2546C4.21529 13.0518 4.13106 12.8551 4.0306 12.6667C3.9582 12.5354 3.75714 12.6527 3.82959 12.7842C3.87008 12.8576 3.90442 12.9345 3.9388 13.011C3.97163 13.0841 3.98938 13.1214 4.01314 13.1883C4.08259 13.3833 4.1532 13.58 4.20315 13.7811C4.208 13.8011 4.21285 13.8211 4.21692 13.8413C4.21847 13.8488 4.22623 13.8964 4.22342 13.873C4.22829 13.9208 4.22771 13.969 4.22167 14.0166C4.21722 14.1095 4.17933 14.1976 4.11498 14.2647C4.08443 14.2913 4.04774 14.3099 4.00821 14.3189C3.96868 14.3278 3.92755 14.3268 3.88851 14.316C3.85248 14.3051 3.82031 14.2841 3.79579 14.2555C3.78653 14.2458 3.77707 14.2361 3.7681 14.2264C3.76238 14.2201 3.73818 14.1896 3.7456 14.1995C3.60585 14.0189 3.50528 13.8112 3.45031 13.5896C3.41787 13.4434 3.19329 13.5053 3.22588 13.6515L3.22627 13.6513Z" fill="#211715"/>
<path d="M0.232775 15.8948C0.26934 15.444 0.28035 14.9915 0.265752 14.5394C0.255471 14.1448 0.23583 13.7501 0.246014 13.3553C0.256924 12.9148 0.310273 12.4765 0.40532 12.0463C0.424088 11.9441 0.462707 11.8466 0.518992 11.7593C0.582366 11.6749 0.659975 11.6023 0.748324 11.5447C0.940218 11.4057 1.14521 11.2872 1.34908 11.167C1.59113 11.0274 1.82227 10.8696 2.04052 10.695C2.18018 10.5814 2.42848 10.5797 2.61732 10.5597C2.64792 10.5589 2.67703 10.5464 2.69868 10.5247C2.72033 10.5031 2.73286 10.474 2.7337 10.4434C2.7335 10.4125 2.72117 10.3831 2.69939 10.3613C2.67761 10.3395 2.64812 10.3272 2.61732 10.327C2.41364 10.3485 2.19279 10.3541 2.00415 10.4415C1.90274 10.4885 1.82016 10.5781 1.73083 10.6441C1.62899 10.7194 1.52303 10.7893 1.41523 10.8558C1.20786 10.9839 0.993611 11.1005 0.789642 11.2341C0.589843 11.365 0.382285 11.5041 0.269971 11.7224C0.219246 11.8307 0.183453 11.9454 0.163573 12.0634C0.137936 12.1853 0.115482 12.3079 0.0962138 12.4312C0.0609742 12.6575 0.0365813 12.8851 0.023035 13.114C-0.000339464 13.5216 0.014209 13.9294 0.0270601 14.3369C0.0488196 14.8562 0.0397838 15.3764 0 15.8948C0.000240931 15.9255 0.0125805 15.955 0.0343554 15.9768C0.0561303 15.9986 0.0855942 16.0109 0.116388 16.0111C0.147061 16.0105 0.176306 15.9981 0.198 15.9764C0.219694 15.9547 0.232155 15.9254 0.232775 15.8948Z" fill="#211715"/>
<path d="M6.90166 6.3185C7.28652 6.23727 9.05687 5.86032 9.72625 5.71717C9.79404 5.70262 9.86483 5.71555 9.92311 5.75312C9.98138 5.79069 10.0224 5.84984 10.0371 5.9176C10.1693 6.52378 10.4194 7.65968 10.4746 7.92126C10.5591 8.32207 10.886 9.85344 11.0393 10.575C11.0465 10.6087 11.047 10.6435 11.0407 10.6773C11.0345 10.7112 11.0216 10.7435 11.0028 10.7724C10.9841 10.8013 10.9598 10.8262 10.9314 10.8457C10.9031 10.8652 10.8711 10.8789 10.8374 10.886C9.59953 11.149 4.43948 12.2492 3.25175 12.5024C3.22349 12.5085 3.19432 12.5089 3.16591 12.5036C3.13749 12.4983 3.11039 12.4875 3.08616 12.4718C3.06193 12.4561 3.04103 12.4357 3.02468 12.4119C3.00832 12.3881 2.99683 12.3612 2.99085 12.333C2.84337 11.6385 2.50105 10.0338 2.414 9.62212C2.35949 9.36383 2.11508 8.25335 1.98167 7.64222C1.97427 7.60851 1.97361 7.57367 1.97973 7.5397C1.98585 7.50573 1.99862 7.47331 2.01731 7.4443C2.036 7.41528 2.06024 7.39025 2.08863 7.37064C2.11703 7.35102 2.14902 7.33721 2.18278 7.33001C3.16276 7.11964 6.6233 6.37723 6.90166 6.3185Z" fill="#BDBDBD"/>
<path d="M6.93243 6.43072C7.31176 6.35064 7.69099 6.27007 8.07012 6.18902C8.55684 6.08556 9.04357 5.98183 9.5303 5.87783L9.66608 5.84873C9.70749 5.83549 9.7506 5.82836 9.79406 5.82759C9.9215 5.83971 9.93067 5.97598 9.9523 6.07491C10.011 6.34344 10.0698 6.61196 10.1287 6.88046C10.2165 7.28088 10.3047 7.68116 10.3897 8.08216C10.4906 8.55809 10.5919 9.03395 10.6935 9.50975C10.749 9.77007 10.8045 10.0303 10.8599 10.2905C10.882 10.3944 10.9132 10.5004 10.9269 10.6057C10.9411 10.714 10.8605 10.762 10.7682 10.7816C10.4825 10.8423 10.1969 10.9031 9.91127 10.964C9.50013 11.0515 9.08901 11.1391 8.6779 11.2267L7.24343 11.5322L5.783 11.8435L4.472 12.1234L3.48556 12.3337L3.30865 12.3713C3.24619 12.3847 3.17369 12.4121 3.12539 12.3531C3.10185 12.311 3.08795 12.2643 3.0847 12.2162L3.05299 12.0672L2.98025 11.7248C2.87032 11.2087 2.7604 10.6926 2.65048 10.1765C2.57706 9.83142 2.50407 9.48623 2.42881 9.14148C2.36981 8.87107 2.31063 8.6007 2.25127 8.33036C2.22137 8.19389 2.19146 8.05741 2.16156 7.92092L2.12067 7.73407C2.10316 7.68202 2.09336 7.6277 2.09158 7.57282C2.1021 7.46613 2.19827 7.44542 2.28468 7.4269L2.49806 7.38112L3.03519 7.2659L4.38485 6.97643C4.84145 6.8785 5.29802 6.78062 5.75459 6.68279C6.07899 6.61325 6.40338 6.54374 6.72778 6.47427C6.79609 6.45965 6.86442 6.4451 6.93277 6.43062C7.07922 6.39973 7.01725 6.17525 6.87089 6.20619C6.65218 6.25235 6.43361 6.29905 6.21519 6.34629C5.79051 6.4373 5.36592 6.52831 4.94143 6.61931C4.46259 6.72193 3.9838 6.82466 3.50506 6.9275L2.33842 7.17759C2.26858 7.19257 2.19482 7.20271 2.12674 7.22438C2.04742 7.24938 1.97841 7.29956 1.93019 7.36731C1.88197 7.43507 1.85716 7.5167 1.85953 7.59983C1.86642 7.72965 1.91093 7.86384 1.93867 7.99055L2.03222 8.4176C2.12775 8.85352 2.22455 9.2892 2.31698 9.72585C2.41355 10.182 2.51054 10.638 2.60795 11.0938C2.66437 11.3584 2.72073 11.623 2.77705 11.8876C2.80104 12.0005 2.82508 12.1135 2.84916 12.2264C2.87729 12.3589 2.89979 12.4856 3.0205 12.5677C3.17127 12.6703 3.36563 12.5968 3.52858 12.5621L3.97434 12.4671L5.17275 12.2116L6.61818 11.9035L8.11498 11.5845L9.4898 11.2915L10.547 11.0665L10.7403 11.0254C10.8158 11.0146 10.8895 10.994 10.9596 10.964C11.0327 10.9241 11.0908 10.8617 11.1254 10.7859C11.1599 10.7102 11.169 10.6254 11.1513 10.5441C11.1307 10.4339 11.1046 10.3245 11.0813 10.215C10.9662 9.67447 10.8511 9.13403 10.7359 8.59364C10.6597 8.23565 10.5844 7.87742 10.5065 7.51977C10.3896 6.9838 10.2723 6.44793 10.1546 5.91216C10.1406 5.83423 10.103 5.76251 10.0468 5.70676C9.99055 5.65101 9.91851 5.61395 9.84047 5.60063C9.72845 5.58371 9.61177 5.6227 9.50246 5.64607L8.81335 5.79306C8.31149 5.90004 7.80957 6.00687 7.30759 6.11356C7.16191 6.1445 7.0162 6.17541 6.87045 6.20628C6.72405 6.23717 6.78602 6.46161 6.93243 6.43072Z" fill="#211715"/>
<path d="M2.24147 8.29687C3.29381 8.07447 6.72045 7.35006 7.05521 7.27945C7.57619 7.16951 10.0638 6.63878 10.1889 6.60983C10.2235 6.7689 10.259 6.93131 10.2928 7.086C10.232 7.10123 7.6838 7.64486 7.15584 7.7563C6.77826 7.83598 4.18941 8.38397 3.78773 8.46874C3.51131 8.52693 2.52371 8.73643 2.2342 8.79753C2.20064 8.64274 2.16494 8.47999 2.12988 8.32044L2.24147 8.29687Z" fill="#211715"/>
<path d="M2.4266 7.75C2.4736 7.68489 2.52474 7.62286 2.5797 7.56432C2.58545 7.55821 2.59275 7.55379 2.60082 7.55152C2.60889 7.54925 2.61743 7.54923 2.62552 7.55146C2.6336 7.55368 2.64093 7.55807 2.6467 7.56414C2.65248 7.57022 2.65649 7.57776 2.65831 7.58594C2.67712 7.66999 2.70108 7.77309 2.71878 7.85136C2.72067 7.85948 2.72031 7.86797 2.71774 7.87591C2.71518 7.88385 2.7105 7.89093 2.70421 7.89642C2.69792 7.9019 2.69026 7.90557 2.68204 7.90702C2.67383 7.90848 2.66537 7.90768 2.65758 7.9047C2.59231 7.88002 2.50603 7.84486 2.44614 7.8194C2.43977 7.8167 2.43408 7.8126 2.4295 7.80741C2.42493 7.80222 2.42157 7.79606 2.4197 7.7894C2.41782 7.78273 2.41747 7.77573 2.41866 7.76891C2.41986 7.76209 2.42257 7.75563 2.4266 7.75Z" fill="#211715"/>
<path d="M3.95122 10.1158C3.72121 10.1646 3.38543 10.2359 3.23985 10.2667C3.23364 10.2681 3.22722 10.2681 3.22098 10.267C3.21473 10.2658 3.20877 10.2634 3.20345 10.26C3.19813 10.2565 3.19354 10.252 3.18996 10.2468C3.18638 10.2415 3.18387 10.2356 3.18258 10.2294C3.1418 10.0357 3.05523 9.62321 3.01668 9.44024C3.01536 9.43403 3.01528 9.42762 3.01644 9.42138C3.01761 9.41515 3.01999 9.4092 3.02346 9.40389C3.02693 9.39857 3.03142 9.394 3.03666 9.39042C3.04191 9.38685 3.04781 9.38435 3.05402 9.38306L3.93022 9.19878C3.93643 9.19746 3.94283 9.19738 3.94906 9.19853C3.95529 9.19969 3.96124 9.20207 3.96655 9.20553C3.97186 9.20899 3.97644 9.21346 3.98001 9.2187C3.98359 9.22393 3.9861 9.22982 3.9874 9.23603C4.0246 9.41061 4.12091 9.85744 4.15626 10.0229C4.15889 10.0355 4.15645 10.0485 4.14946 10.0593C4.14247 10.07 4.1315 10.0776 4.11897 10.0803L3.95122 10.1158Z" fill="#FFDA71"/>
<path d="M3.92031 10.0036L3.53298 10.0858L3.35646 10.1232L3.27494 10.1405C3.26325 10.143 3.25132 10.1449 3.23978 10.148C3.19522 10.1597 3.2458 10.1312 3.27048 10.1616L3.3004 10.213C3.28242 10.1544 3.26898 10.0945 3.2602 10.0338L3.21277 9.80797L3.16694 9.58975C3.16025 9.55784 3.15354 9.52593 3.14682 9.49402L3.1379 9.45173L3.13329 9.42962C3.12883 9.40204 3.12503 9.41576 3.12189 9.47079L3.07054 9.50071C3.13056 9.48233 3.19191 9.46858 3.25404 9.45959L3.51034 9.40571L3.76493 9.35212L3.87308 9.32938L3.91876 9.31968C3.92472 9.31842 3.93098 9.31754 3.93685 9.3159C3.977 9.30455 3.92453 9.33427 3.89956 9.30363L3.86959 9.25227C3.88826 9.31254 3.9023 9.37414 3.91158 9.43655C3.92723 9.50968 3.94293 9.5828 3.95867 9.65589L4.00581 9.87523C4.01298 9.9085 4.02015 9.9418 4.02729 9.97513C4.0303 9.98926 4.03332 10.0034 4.03636 10.0175L4.04038 10.0363C4.04488 10.0627 4.04848 10.048 4.0512 9.99206L4.10255 9.96214C4.04295 9.98049 3.98202 9.99424 3.92031 10.0033C3.89054 10.0115 3.86525 10.0312 3.85001 10.058C3.83476 10.0849 3.8308 10.1167 3.83901 10.1464C3.84722 10.1762 3.86691 10.2015 3.89376 10.2167C3.92061 10.232 3.95242 10.2359 3.98219 10.2277C4.05978 10.2113 4.16885 10.2066 4.22738 10.1472C4.29042 10.0833 4.27069 10.0017 4.2541 9.92441C4.22562 9.7916 4.19709 9.65879 4.16851 9.52597L4.12617 9.3288C4.11992 9.26674 4.102 9.20642 4.07336 9.15101C3.99014 9.02929 3.80053 9.10737 3.68346 9.13195L3.28411 9.216L3.11156 9.25227C3.05337 9.26454 2.99033 9.27094 2.94586 9.31575C2.87971 9.38267 2.9042 9.46909 2.92117 9.54969C2.93524 9.61658 2.94928 9.68344 2.96331 9.75026C2.99374 9.89507 3.02417 10.0399 3.05463 10.1847C3.07442 10.2789 3.10797 10.3815 3.22436 10.3839C3.3003 10.3779 3.37537 10.3636 3.44821 10.3413L3.98214 10.228C3.99688 10.224 4.01068 10.217 4.02274 10.2077C4.0348 10.1983 4.0449 10.1866 4.05245 10.1733C4.06 10.16 4.06485 10.1453 4.06674 10.1302C4.06863 10.115 4.06751 10.0996 4.06344 10.0849C4.05938 10.0701 4.05245 10.0563 4.04306 10.0443C4.03367 10.0322 4.02199 10.0221 4.00869 10.0145C3.9954 10.007 3.98074 10.0021 3.96557 10.0003C3.9504 9.99837 3.93505 9.99949 3.92031 10.0036Z" fill="#211715"/>
<path d="M4.16442 10.6217L4.207 10.8234C4.21308 10.8455 4.22554 10.8652 4.24282 10.8803C4.2601 10.8953 4.28142 10.9049 4.30413 10.9079C4.32683 10.9108 4.34991 10.907 4.37046 10.8969C4.39102 10.8869 4.40815 10.8709 4.4197 10.8512C4.43447 10.8237 4.43864 10.7918 4.43143 10.7615L4.38905 10.5598C4.38297 10.5377 4.37051 10.5179 4.35323 10.5028C4.33595 10.4878 4.31462 10.4782 4.2919 10.4752C4.26919 10.4723 4.2461 10.4761 4.22554 10.4862C4.20497 10.4962 4.18785 10.5122 4.1763 10.532C4.16156 10.5594 4.15738 10.5913 4.16457 10.6216L4.16442 10.6217Z" fill="#211715"/>
<path d="M3.83937 10.6902L3.88195 10.8919C3.88803 10.914 3.90049 10.9338 3.91777 10.9488C3.93504 10.9639 3.95637 10.9735 3.97907 10.9764C4.00178 10.9794 4.02485 10.9756 4.04541 10.9655C4.06597 10.9554 4.08309 10.9395 4.09464 10.9197C4.10941 10.8923 4.11358 10.8604 4.10638 10.8301L4.06385 10.6284C4.05778 10.6063 4.04533 10.5865 4.02805 10.5714C4.01077 10.5564 3.98944 10.5468 3.96672 10.5438C3.944 10.5408 3.92092 10.5446 3.90035 10.5547C3.87978 10.5648 3.86265 10.5807 3.8511 10.6005C3.83636 10.628 3.83219 10.6599 3.83937 10.6902Z" fill="#211715"/>
<path d="M3.51417 10.7588L3.55675 10.9605C3.56283 10.9826 3.57529 11.0024 3.59257 11.0174C3.60985 11.0324 3.63117 11.042 3.65388 11.045C3.67658 11.048 3.69966 11.0442 3.72021 11.0341C3.74077 11.024 3.7579 11.0081 3.76945 10.9883C3.78421 10.9609 3.78839 10.929 3.78118 10.8986L3.73865 10.6969C3.73259 10.6749 3.72013 10.655 3.70285 10.64C3.68558 10.625 3.66424 10.6153 3.64153 10.6124C3.61881 10.6094 3.59572 10.6132 3.57515 10.6233C3.55459 10.6334 3.53746 10.6493 3.52591 10.6691C3.51117 10.6966 3.50699 10.7285 3.51417 10.7588Z" fill="#211715"/>
<path d="M3.18897 10.8273L3.23155 11.0291C3.23764 11.0511 3.2501 11.0709 3.26737 11.086C3.28465 11.101 3.30598 11.1106 3.32868 11.1136C3.35139 11.1165 3.37446 11.1127 3.39502 11.1026C3.41557 11.0926 3.4327 11.0766 3.44425 11.0569C3.45901 11.0294 3.46319 10.9974 3.45599 10.9671L3.41346 10.7654C3.40738 10.7433 3.39492 10.7235 3.37764 10.7084C3.36036 10.6934 3.33903 10.6838 3.31631 10.6808C3.2936 10.6779 3.27051 10.6817 3.24995 10.6918C3.22938 10.7018 3.21226 10.7178 3.20071 10.7376C3.18597 10.765 3.1818 10.7969 3.18897 10.8272V10.8273Z" fill="#211715"/>
<path d="M5.58128 9.21402C5.26412 9.28109 4.94406 9.33947 4.62903 9.41566C4.61184 9.4204 4.59575 9.42848 4.58167 9.43943C4.5676 9.45039 4.55582 9.46401 4.54702 9.47952C4.52923 9.51084 4.52461 9.54795 4.53418 9.58268C4.54375 9.6174 4.56672 9.6469 4.59804 9.66469C4.61355 9.6735 4.63064 9.67917 4.64834 9.68137C4.66604 9.68357 4.684 9.68227 4.70119 9.67753C5.01641 9.60135 5.33648 9.54296 5.65344 9.47589C5.68816 9.46632 5.71767 9.44335 5.73546 9.41203C5.75325 9.38071 5.75786 9.3436 5.74829 9.30887C5.73872 9.27415 5.71575 9.24464 5.68443 9.22686C5.65311 9.20907 5.616 9.20445 5.58128 9.21402Z" fill="#211715"/>
<path d="M7.0295 8.90854C6.71235 8.97556 6.39233 9.03395 6.07726 9.11018C6.04253 9.11976 6.01303 9.14274 5.99525 9.17406C5.97746 9.20539 5.97285 9.2425 5.98243 9.27723C5.992 9.31195 6.01498 9.34145 6.04631 9.35924C6.07763 9.37702 6.11474 9.38163 6.14947 9.37206C6.46468 9.29582 6.78475 9.23743 7.10171 9.17041C7.13644 9.16084 7.16594 9.13786 7.18372 9.10654C7.20151 9.07521 7.20612 9.0381 7.19654 9.00337C7.18697 8.96865 7.16399 8.93915 7.13266 8.92136C7.10134 8.90358 7.06423 8.89897 7.0295 8.90854Z" fill="#211715"/>
<path d="M8.47682 8.60302C8.15966 8.67004 7.83959 8.72848 7.52452 8.80467C7.4898 8.81424 7.4603 8.83722 7.44251 8.86855C7.42473 8.89987 7.42012 8.93698 7.42969 8.97171C7.43927 9.00643 7.46225 9.03593 7.49357 9.05372C7.5249 9.0715 7.56201 9.07611 7.59673 9.06654C7.91195 8.99035 8.23201 8.93192 8.54898 8.8649C8.56617 8.86016 8.58226 8.85208 8.59634 8.84112C8.61041 8.83017 8.62219 8.81654 8.631 8.80103C8.6398 8.78553 8.64547 8.76843 8.64767 8.75073C8.64988 8.73304 8.64857 8.71508 8.64383 8.69788C8.6391 8.68069 8.63102 8.66459 8.62006 8.65052C8.6091 8.63645 8.59548 8.62467 8.57997 8.61586C8.56446 8.60705 8.54737 8.60139 8.52967 8.59918C8.51197 8.59698 8.49401 8.59829 8.47682 8.60302Z" fill="#211715"/>
<path d="M9.91232 8.30014C9.59516 8.36716 9.27509 8.4256 8.96007 8.50179C8.92534 8.51136 8.89584 8.53434 8.87806 8.56567C8.86027 8.59699 8.85566 8.6341 8.86524 8.66883C8.87481 8.70355 8.89779 8.73305 8.92912 8.75084C8.96044 8.76862 8.99755 8.77323 9.03228 8.76366C9.3475 8.68747 9.66756 8.62904 9.98452 8.56202C10.0017 8.55727 10.0178 8.54919 10.0319 8.53823C10.046 8.52727 10.0577 8.51365 10.0665 8.49814C10.0753 8.48262 10.081 8.46553 10.0832 8.44783C10.0854 8.43013 10.0841 8.41217 10.0794 8.39498C10.0746 8.37778 10.0665 8.36169 10.0556 8.34762C10.0446 8.33355 10.031 8.32177 10.0155 8.31296C9.99996 8.30416 9.98287 8.29849 9.96517 8.29629C9.94747 8.29409 9.92951 8.2954 9.91232 8.30014Z" fill="#211715"/>
<path d="M9.74602 9.5516C9.8721 9.65296 9.99562 9.75824 10.1263 9.85377C10.1397 9.86156 10.1545 9.8666 10.1699 9.86861C10.1853 9.87063 10.201 9.86957 10.2159 9.86551C10.2451 9.85723 10.27 9.83816 10.2855 9.81217C10.2933 9.79872 10.2983 9.78388 10.3003 9.76848C10.3024 9.75308 10.3013 9.73744 10.2973 9.72245C10.2878 9.69395 10.269 9.66946 10.2439 9.65291C10.2285 9.64166 10.2134 9.63012 10.1983 9.61853L10.2218 9.63671C10.1167 9.55539 10.0143 9.47047 9.91075 9.38716C9.88833 9.36618 9.85901 9.35411 9.82831 9.35321C9.79746 9.35335 9.76788 9.36553 9.74587 9.38716C9.72413 9.40909 9.71193 9.43872 9.71193 9.4696C9.71171 9.48492 9.7146 9.50013 9.72044 9.5143C9.72627 9.52847 9.73493 9.54131 9.74587 9.55204L9.74602 9.5516Z" fill="#211715"/>
<path d="M9.08131 9.6605C9.36617 9.9262 9.67436 10.1697 9.97658 10.4152C10.0334 10.4612 10.0902 10.5073 10.1482 10.5519C10.1748 10.5673 10.2065 10.5715 10.2364 10.5637C10.2662 10.5559 10.2917 10.5367 10.3074 10.5101C10.3222 10.4833 10.3261 10.4518 10.3184 10.4222C10.3106 10.3925 10.2917 10.367 10.2657 10.3509C10.2911 10.3703 10.2811 10.3628 10.2653 10.3504C10.2556 10.3427 10.2459 10.3351 10.2362 10.3274C10.209 10.3057 10.182 10.2839 10.1551 10.262C10.0833 10.2038 10.0119 10.1453 9.94064 10.0866C9.77435 9.94967 9.6086 9.8119 9.44503 9.6717C9.37776 9.61409 9.3105 9.55633 9.24571 9.49591C9.13626 9.39407 8.97128 9.55808 9.08112 9.6605H9.08131Z" fill="#211715"/>
<path d="M2.33103 12.9817C2.99701 12.7568 3.43986 12.1461 3.95362 11.6663C4.09581 11.5336 4.28969 11.4009 4.47009 11.4737C4.59133 11.5226 4.66276 11.6561 4.67158 11.7867C4.67307 11.918 4.64393 12.048 4.58648 12.1661C4.32276 12.7908 3.98427 13.0843 3.67889 13.6897C3.549 13.9472 3.45201 14.2201 3.39021 14.5019C3.31824 14.8302 3.29996 15.0858 3.20108 15.3195C3.0941 15.6748 2.60182 16.0576 2.19238 16.5266" fill="white"/>
<path d="M2.36122 13.0939C2.87439 12.9175 3.2624 12.5338 3.63178 12.1524C3.7247 12.0565 3.81732 11.9603 3.91237 11.8666C4.00031 11.7699 4.10091 11.6856 4.21144 11.6159C4.30407 11.5643 4.41963 11.5422 4.49485 11.6341C4.57244 11.7289 4.56327 11.8596 4.53267 11.9704C4.45721 12.2436 4.29684 12.5014 4.14171 12.736C3.99171 12.9629 3.83003 13.1818 3.69337 13.4173C3.53886 13.6811 3.41733 13.9628 3.3315 14.2563C3.25125 14.5349 3.22515 14.8246 3.15033 15.1041C3.12273 15.219 3.07938 15.3295 3.02153 15.4325C2.95334 15.5413 2.8742 15.6428 2.78536 15.7355C2.56499 15.9766 2.3249 16.1987 2.10943 16.4444C2.01104 16.5567 2.17505 16.7219 2.27403 16.609C2.47702 16.3775 2.70136 16.1666 2.91144 15.9418C3.0037 15.8453 3.08922 15.7426 3.1674 15.6344C3.2306 15.5412 3.28166 15.4403 3.31933 15.3342C3.42035 15.0701 3.4443 14.7855 3.50638 14.5113C3.57827 14.1959 3.69462 13.8923 3.85195 13.6096C4.13565 13.0971 4.54349 12.6563 4.73747 12.0949C4.78751 11.95 4.81089 11.7858 4.75788 11.6382C4.7362 11.5697 4.69808 11.5076 4.64684 11.4573C4.59559 11.407 4.5328 11.37 4.46396 11.3496C4.15805 11.272 3.90142 11.5484 3.70744 11.7421C3.28602 12.1635 2.88181 12.6692 2.29924 12.8695C2.15861 12.918 2.21894 13.1429 2.36112 13.0939H2.36122Z" fill="#211715"/>
<path d="M10.2663 4.43089C10.2304 4.53894 10.2054 4.64994 10.1751 4.75949C10.171 4.77423 10.1699 4.78963 10.1718 4.8048C10.1737 4.81997 10.1785 4.83462 10.1861 4.84792C10.1936 4.86121 10.2037 4.87289 10.2158 4.88229C10.2279 4.89168 10.2416 4.89861 10.2564 4.90267C10.2711 4.90673 10.2865 4.90785 10.3017 4.90597C10.3169 4.90408 10.3315 4.89922 10.3448 4.89167C10.3581 4.88412 10.3698 4.87403 10.3792 4.86197C10.3886 4.8499 10.3955 4.83611 10.3996 4.82137C10.4298 4.71182 10.4549 4.60082 10.4907 4.49277C10.4987 4.46301 10.4946 4.43132 10.4794 4.40453C10.4642 4.37774 10.439 4.35802 10.4094 4.34961C10.3797 4.34213 10.3482 4.3464 10.3215 4.36154C10.2949 4.37668 10.2751 4.40152 10.2663 4.43089Z" fill="#211715"/>
<path d="M10.8943 4.76255C10.8009 4.827 10.7126 4.89833 10.6218 4.96622C10.5963 4.98235 10.5774 5.00699 10.5684 5.03577C10.5604 5.06605 10.5646 5.09829 10.5802 5.12548C10.5956 5.15156 10.6205 5.17067 10.6497 5.17883C10.6647 5.18314 10.6804 5.18432 10.6958 5.1823C10.7112 5.18028 10.7261 5.1751 10.7394 5.16709C10.8302 5.0992 10.9185 5.02772 11.012 4.96341C11.0376 4.94747 11.0566 4.92275 11.0653 4.89387C11.0734 4.8636 11.0692 4.83138 11.0536 4.8042C11.0382 4.77811 11.0132 4.75899 10.984 4.75086C10.9691 4.74666 10.9534 4.74554 10.938 4.74756C10.9226 4.74957 10.9077 4.75469 10.8943 4.76259V4.76255Z" fill="#211715"/>
</svg>
