<svg width="31" height="30" viewBox="0 0 31 30" fill="none" xmlns="http://www.w3.org/2000/svg">
<path d="M22.21 15C22.21 18.4517 19.4117 21.25 15.96 21.25C12.5082 21.25 9.70996 18.4517 9.70996 15C9.70996 11.5482 12.5082 8.75 15.96 8.75C19.4117 8.75 22.21 11.5482 22.21 15Z" fill="white"/>
<path fill-rule="evenodd" clip-rule="evenodd" d="M15.96 1.5625C16.4777 1.5625 16.8975 1.98224 16.8975 2.5V5C16.8975 5.51776 16.4777 5.9375 15.96 5.9375C15.4422 5.9375 15.0225 5.51776 15.0225 5V2.5C15.0225 1.98224 15.4422 1.5625 15.96 1.5625ZM5.54577 4.64511C5.89515 4.26299 6.48815 4.23644 6.87027 4.58581L9.64779 7.1253C10.0299 7.47468 10.0565 8.06766 9.70709 8.44979C9.35771 8.83191 8.76471 8.85846 8.38259 8.50909L5.60507 5.96961C5.22295 5.62024 5.1964 5.02724 5.54577 4.64511ZM26.3742 4.64511C26.7236 5.02724 26.697 5.62024 26.3148 5.96961L23.5373 8.50909C23.1552 8.85846 22.5622 8.83191 22.2128 8.44979C21.8635 8.06766 21.89 7.47468 22.2721 7.1253L25.0497 4.58581C25.4318 4.23644 26.0247 4.26299 26.3742 4.64511ZM2.52246 15C2.52246 14.4822 2.9422 14.0625 3.45996 14.0625H5.95996C6.47772 14.0625 6.89746 14.4822 6.89746 15C6.89746 15.5178 6.47772 15.9375 5.95996 15.9375H3.45996C2.9422 15.9375 2.52246 15.5178 2.52246 15ZM25.0225 15C25.0225 14.4822 25.4422 14.0625 25.96 14.0625H28.46C28.9777 14.0625 29.3975 14.4822 29.3975 15C29.3975 15.5178 28.9777 15.9375 28.46 15.9375H25.96C25.4422 15.9375 25.0225 15.5178 25.0225 15ZM22.2418 21.2815C22.608 20.9154 23.2016 20.9154 23.5677 21.2815L26.3452 24.0594C26.7113 24.4255 26.7112 25.0191 26.3451 25.3853C25.979 25.7514 25.3853 25.7512 25.0193 25.3851L22.2418 22.6073C21.8757 22.2411 21.8757 21.6476 22.2418 21.2815ZM9.6783 21.2816C10.0444 21.6477 10.0444 22.2414 9.6783 22.6075L6.90051 25.3853C6.5344 25.7514 5.94081 25.7514 5.57469 25.3853C5.20857 25.0191 5.20857 24.4255 5.57469 24.0595L8.35247 21.2816C8.71859 20.9155 9.31217 20.9155 9.6783 21.2816ZM15.96 24.0625C16.4777 24.0625 16.8975 24.4822 16.8975 25V27.5C16.8975 28.0178 16.4777 28.4375 15.96 28.4375C15.4422 28.4375 15.0225 28.0178 15.0225 27.5V25C15.0225 24.4822 15.4422 24.0625 15.96 24.0625Z" fill="white"/>
</svg>
