<svg width="20" height="20" viewBox="0 0 20 20" fill="none" xmlns="http://www.w3.org/2000/svg">
<path d="M10.4102 20L7.52539 18.3438L4.86133 19.873H4.64063C4.30273 19.873 3.97266 19.8066 3.66211 19.6758C3.36328 19.5488 3.09375 19.3691 2.86523 19.1367C2.63672 18.9082 2.45508 18.6387 2.32812 18.3398C2.19727 18.0293 2.13086 17.7012 2.13086 17.3613V2.50977C2.13086 2.16992 2.19727 1.8418 2.32812 1.53125C2.45508 1.23242 2.63672 0.962891 2.86719 0.734375C3.0957 0.503906 3.36523 0.324219 3.66406 0.197266C3.9707 0.0664063 4.30078 0 4.63867 0H16.1797C16.5176 0 16.8477 0.0664063 17.1582 0.197266C17.457 0.324219 17.7266 0.503906 17.9551 0.736328C18.1836 0.964844 18.3652 1.23438 18.4922 1.5332C18.623 1.84375 18.6895 2.17188 18.6895 2.51172V17.3633C18.6895 17.7031 18.623 18.0312 18.4922 18.3418C18.3652 18.6406 18.1836 18.9102 17.9531 19.1387C17.7246 19.3691 17.4551 19.5488 17.1563 19.6758C16.8477 19.8066 16.5176 19.873 16.1797 19.873H15.959L13.2949 18.3438L10.4102 20ZM13.2949 16.4336L16.3652 18.1973C16.4141 18.1855 16.4629 18.1699 16.5117 18.1504C16.6133 18.1074 16.7051 18.0449 16.7832 17.9668C16.8633 17.8867 16.9238 17.7969 16.9668 17.6934C17.0117 17.5898 17.0332 17.4766 17.0332 17.3613V2.50977C17.0332 2.39453 17.0117 2.28125 16.9668 2.17773C16.9238 2.07617 16.8613 1.98438 16.7832 1.90625C16.7031 1.82617 16.6133 1.76562 16.5117 1.72266C16.4063 1.67773 16.2949 1.65625 16.1797 1.65625H4.63867C4.52344 1.65625 4.41211 1.67773 4.30664 1.72266C4.20508 1.76562 4.11328 1.82812 4.03516 1.90625C3.95508 1.98633 3.89453 2.07617 3.85156 2.17969C3.80664 2.2832 3.78516 2.39648 3.78516 2.51172V17.3633C3.78516 17.4785 3.80664 17.5918 3.85156 17.6953C3.89453 17.7969 3.95703 17.8887 4.03516 17.9668C4.11523 18.0469 4.20508 18.1074 4.30664 18.1504C4.35352 18.1699 4.40234 18.1855 4.45313 18.1973L7.52344 16.4336L10.4102 18.0898L13.2949 16.4336Z" fill="#212529"/>
<path d="M9.58203 6.07227H6.26953C5.8125 6.07227 5.44141 5.70117 5.44141 5.24414C5.44141 4.78711 5.8125 4.41602 6.26953 4.41602H9.58203C10.0391 4.41602 10.4102 4.78711 10.4102 5.24414C10.4102 5.70117 10.0391 6.07227 9.58203 6.07227ZM13.7207 9.52344H6.26953C5.8125 9.52344 5.44141 9.15234 5.44141 8.69531C5.44141 8.23828 5.8125 7.86719 6.26953 7.86719H13.7227C14.1797 7.86719 14.5508 8.23828 14.5508 8.69531C14.5488 9.15234 14.1797 9.52344 13.7207 9.52344Z" fill="#007BFF"/>
</svg>
