<svg width="31" height="30" viewBox="0 0 31 30" fill="none" xmlns="http://www.w3.org/2000/svg">
<path d="M15.96 12.5C18.7214 12.5 20.96 10.2614 20.96 7.5C20.96 4.73858 18.7214 2.5 15.96 2.5C13.1985 2.5 10.96 4.73858 10.96 7.5C10.96 10.2614 13.1985 12.5 15.96 12.5Z" stroke="white" stroke-width="3.75"/>
<path d="M25.9568 22.5C25.96 22.2948 25.96 22.0862 25.96 21.875C25.96 18.7684 21.4828 16.25 15.96 16.25C10.4371 16.25 5.95996 18.7684 5.95996 21.875C5.95996 24.9816 5.95996 27.5 15.96 27.5C18.7487 27.5 20.7597 27.3041 22.21 26.9543" stroke="white" stroke-width="3.75" stroke-linecap="round"/>
</svg>
